<svg width="124" height="14" viewBox="0 0 124 14" fill="none" xmlns="http://www.w3.org/2000/svg">
<path d="M1.1 9.74C1.75333 9.92667 2.42 10.0733 3.1 10.18C3.78 10.2867 4.45333 10.34 5.12 10.34C5.46667 10.34 5.77333 10.3333 6.04 10.32C6.30667 10.3067 6.59333 10.2733 6.9 10.22V8.5L5.08 8.34C4.28 8.27333 3.6 8.16 3.04 8C2.49333 7.82667 2.05333 7.59333 1.72 7.3C1.38667 6.99333 1.14667 6.62 1 6.18C0.853333 5.72667 0.78 5.18 0.78 4.54C0.78 3.47333 0.926667 2.62667 1.22 2C1.51333 1.36 2.00667 0.899999 2.7 0.62C3.39333 0.339999 4.32 0.199999 5.48 0.199999C6.25333 0.199999 7.02 0.246666 7.78 0.34C8.54 0.433333 9.28667 0.566666 10.02 0.739999L9.58 3.56C8.91333 3.42667 8.32667 3.33333 7.82 3.28C7.31333 3.21333 6.78667 3.18 6.24 3.18C5.85333 3.18 5.54 3.18667 5.3 3.2C5.07333 3.21333 4.82667 3.24 4.56 3.28V5L6.2 5.14C7.26667 5.24667 8.12667 5.45333 8.78 5.76C9.44667 6.05333 9.92667 6.48 10.22 7.04C10.5267 7.58667 10.68 8.29333 10.68 9.16C10.68 10.1333 10.5 10.9267 10.14 11.54C9.79333 12.14 9.24 12.5867 8.48 12.88C7.72 13.16 6.74 13.3 5.54 13.3C4.64667 13.3 3.78667 13.2467 2.96 13.14C2.14667 13.0333 1.36 12.8667 0.6 12.64L1.1 9.74ZM15.7895 8.04V10.1H20.6695V13H12.2695V0.5H20.7295L20.2895 3.4H15.7895V5.46H19.9495V8.04H15.7895ZM21.3806 13L24.7006 0.5H30.1606L33.4806 13H29.9606L27.5206 3.86H27.3406L24.9006 13H21.3806ZM23.6006 10.82V8.24H31.2606V10.82H23.6006ZM38.1434 9.18V13H34.6234V0.5H40.2234C41.2901 0.5 42.1501 0.653333 42.8034 0.959999C43.4701 1.25333 43.9501 1.73333 44.2434 2.4C44.5501 3.06667 44.7034 3.94 44.7034 5.02C44.7034 6.46 44.3701 7.51333 43.7034 8.18C43.0368 8.84667 41.9768 9.18 40.5234 9.18H38.1434ZM38.1434 6.6H40.0834C40.4301 6.6 40.6701 6.54 40.8034 6.42C40.9501 6.3 41.0234 6.08 41.0234 5.76V4.24C41.0234 3.92 40.9501 3.7 40.8034 3.58C40.6701 3.46 40.4301 3.4 40.0834 3.4H38.1434V6.6ZM42.3034 6.84L45.2434 13H41.4234L39.2834 8.48L42.3034 6.84ZM55.1886 12.78C54.6819 12.9533 54.1419 13.08 53.5686 13.16C52.9953 13.2533 52.3219 13.3 51.5486 13.3C50.5353 13.3 49.6886 13.1933 49.0086 12.98C48.3286 12.7533 47.7886 12.3933 47.3886 11.9C46.9886 11.4067 46.7019 10.74 46.5286 9.9C46.3553 9.06 46.2686 8.01333 46.2686 6.76C46.2686 5.50667 46.3619 4.46 46.5486 3.62C46.7353 2.76667 47.0419 2.09333 47.4686 1.6C47.8953 1.09333 48.4686 0.733333 49.1886 0.52C49.9086 0.306666 50.8086 0.199999 51.8886 0.199999C52.2486 0.199999 52.6353 0.226666 53.0486 0.279999C53.4753 0.32 53.8753 0.38 54.2486 0.459999C54.6219 0.526666 54.9153 0.606666 55.1286 0.7L54.6886 3.5C54.4086 3.42 54.1019 3.35333 53.7686 3.3C53.4353 3.24667 53.1153 3.20667 52.8086 3.18C52.5019 3.14 52.2353 3.12 52.0086 3.12C51.2753 3.12 50.7619 3.21333 50.4686 3.4C50.1886 3.58667 50.0486 3.96667 50.0486 4.54V10.12C50.3553 10.1867 50.6553 10.24 50.9486 10.28C51.2419 10.3067 51.5353 10.32 51.8286 10.32C52.3753 10.32 52.9219 10.28 53.4686 10.2C54.0153 10.1067 54.4953 9.98667 54.9086 9.84L55.1886 12.78ZM60.1263 13H56.6063V0.5H60.1263V13ZM63.6463 0.5H67.1662V13H63.6463V0.5ZM63.9663 8.06H59.8063V5.48H63.9663V8.06ZM76.9333 13H73.4133V0.5H76.9333V13ZM80.4533 0.5H83.9733V13H80.4533V0.5ZM80.7733 8.06H76.6133V5.48H80.7733V8.06ZM85.742 6.76C85.742 5.49333 85.8354 4.44 86.022 3.6C86.2087 2.74667 86.522 2.07333 86.962 1.58C87.402 1.08667 87.9954 0.733333 88.742 0.52C89.4887 0.306666 90.4154 0.199999 91.522 0.199999C92.6287 0.199999 93.5554 0.306666 94.302 0.52C95.062 0.733333 95.6554 1.08667 96.082 1.58C96.522 2.07333 96.8354 2.74667 97.022 3.6C97.2087 4.44 97.302 5.49333 97.302 6.76C97.302 8.02667 97.2087 9.08 97.022 9.92C96.8354 10.76 96.522 11.4267 96.082 11.92C95.6554 12.4133 95.062 12.7667 94.302 12.98C93.5554 13.1933 92.6287 13.3 91.522 13.3C90.4154 13.3 89.4887 13.1933 88.742 12.98C87.9954 12.7667 87.402 12.4133 86.962 11.92C86.522 11.4267 86.2087 10.76 86.022 9.92C85.8354 9.08 85.742 8.02667 85.742 6.76ZM89.522 10.3H91.902C92.5154 10.3 92.9354 10.2133 93.162 10.04C93.402 9.86667 93.522 9.56667 93.522 9.14V3.2H91.122C90.522 3.2 90.102 3.28667 89.862 3.46C89.6354 3.63333 89.522 3.93333 89.522 4.36V10.3ZM98.768 13L99.548 0.5H104.008L105.868 7.58H106.008L107.868 0.5H112.348L113.128 13H109.628L109.228 6.02H109.088L107.288 13H104.588L102.768 6.02H102.648L102.268 13H98.768ZM118.521 8.04V10.1H123.401V13H115.001V0.5H123.461L123.021 3.4H118.521V5.46H122.681V8.04H118.521Z" fill="#326BDC"/>
</svg>
